<svg xmlns="http://www.w3.org/2000/svg" viewBox="0 0 800 320" width="700" height="280">
  <style>
    .char{animation:jump .7s ease-in-out infinite}
    .left-arm{animation:wl .6s ease-in-out infinite;transform-box:fill-box;transform-origin:100% 50%}
    .right-arm{animation:wr .6s ease-in-out infinite;transform-box:fill-box;transform-origin:0% 50%}
    .left-leg{animation:step .8s ease-in-out infinite}
    .right-leg{animation:step .8s ease-in-out infinite .4s}
    @keyframes jump{0%,100%{transform:translateY(0)}40%{transform:translateY(-80px)}55%{transform:translateY(-85px)}85%{transform:translateY(-14px)}}
    @keyframes wl{0%,100%{transform:rotate(0deg)}50%{transform:rotate(-25deg)}}
    @keyframes wr{0%,100%{transform:rotate(0deg)}50%{transform:rotate(25deg)}}
    @keyframes step{0%,100%{transform:translateY(0)}50%{transform:translateY(-17px)}}
    @keyframes np{0%,100%{transform:scale(1)}50%{transform:scale(1.5)}}
    .np{animation:np 2s ease-in-out infinite;transform-box:fill-box;transform-origin:50% 50%}
    @keyframes glow{
      0%{transform:translate(0,0);fill:#2DA44E;opacity:.55}
      16%{transform:translate(140px,0);fill:#2DA44E;opacity:.55}
      17%{transform:translate(149px,0);fill:#2F81F7;opacity:.6}
      22%{transform:translate(188px,0);fill:#2F81F7;opacity:.6}
      27%{transform:translate(230px,-38px);fill:#2F81F7;opacity:.6}
      29%{transform:translate(243px,-48px);fill:#8957E5;opacity:.65}
      36%{transform:translate(276px,-76px);fill:#8957E5;opacity:.65}
      53%{transform:translate(453px,-76px);fill:#8957E5;opacity:.65}
      62%{transform:translate(514px,-19px);fill:#8957E5;opacity:.65}
      63%{transform:translate(521px,-13px);fill:#2F81F7;opacity:.6}
      66%{transform:translate(534px,0);fill:#2F81F7;opacity:.6}
      67%{transform:translate(540px,0);fill:#2DA44E;opacity:.55}
      76%{transform:translate(608px,0);fill:#2DA44E;opacity:.55}
      77%{transform:translate(614px,6px);fill:#DA3633;opacity:.65}
      84%{transform:translate(633px,54px);fill:#DA3633;opacity:.65}
      89%{transform:translate(658px,21px);fill:#DA3633;opacity:.6}
      90%{transform:translate(664px,13px);fill:#2F81F7;opacity:.6}
      92%{transform:translate(674px,0);fill:#2F81F7;opacity:.6}
      93%{transform:translate(680px,0);fill:#2DA44E;opacity:.55}
      100%{transform:translate(728px,0);fill:#2DA44E;opacity:0}
    }
    .branch-glow{animation:glow 5s linear infinite}
    @keyframes twinkle{0%,100%{opacity:.08}50%{opacity:.5}}
    .s{animation:twinkle 4s ease-in-out infinite}
  </style>

  <!-- Background: Starfield -->
  <rect width="800" height="320" fill="#010409"/>
  <!-- Stars — top-left area -->
  <circle cx="45" cy="25" r="0.8" fill="#c9d1d9" class="s" style="animation-delay:0s"/>
  <circle cx="110" cy="15" r="0.6" fill="#c9d1d9" class="s" style="animation-delay:1.2s"/>
  <circle cx="180" cy="55" r="0.7" fill="#c9d1d9" class="s" style="animation-delay:2.5s"/>
  <circle cx="250" cy="30" r="0.5" fill="#c9d1d9" class="s" style="animation-delay:0.8s"/>
  <circle cx="310" cy="65" r="0.9" fill="#c9d1d9" class="s" style="animation-delay:3.1s"/>
  <circle cx="370" cy="20" r="0.6" fill="#c9d1d9" class="s" style="animation-delay:1.7s"/>
  <circle cx="430" cy="45" r="0.7" fill="#c9d1d9" class="s" style="animation-delay:0.3s"/>
  <circle cx="475" cy="12" r="0.5" fill="#c9d1d9" class="s" style="animation-delay:2.9s"/>
  <circle cx="80" cy="70" r="0.6" fill="#c9d1d9" class="s" style="animation-delay:1.5s"/>
  <circle cx="340" cy="50" r="0.8" fill="#c9d1d9" class="s" style="animation-delay:3.6s"/>
  <!-- Stars — bottom area -->
  <circle cx="60" cy="255" r="0.7" fill="#c9d1d9" class="s" style="animation-delay:2.1s"/>
  <circle cx="140" cy="290" r="0.5" fill="#c9d1d9" class="s" style="animation-delay:0.6s"/>
  <circle cx="220" cy="270" r="0.8" fill="#c9d1d9" class="s" style="animation-delay:3.3s"/>
  <circle cx="300" cy="300" r="0.6" fill="#c9d1d9" class="s" style="animation-delay:1.9s"/>
  <circle cx="380" cy="260" r="0.5" fill="#c9d1d9" class="s" style="animation-delay:0.4s"/>
  <circle cx="450" cy="285" r="0.7" fill="#c9d1d9" class="s" style="animation-delay:2.7s"/>
  <circle cx="520" cy="295" r="0.6" fill="#c9d1d9" class="s" style="animation-delay:1.1s"/>
  <circle cx="580" cy="265" r="0.5" fill="#c9d1d9" class="s" style="animation-delay:3.8s"/>
  <!-- Stars — right-top -->
  <circle cx="620" cy="25" r="0.7" fill="#c9d1d9" class="s" style="animation-delay:2.3s"/>
  <circle cx="680" cy="45" r="0.5" fill="#c9d1d9" class="s" style="animation-delay:0.9s"/>
  <circle cx="740" cy="15" r="0.8" fill="#c9d1d9" class="s" style="animation-delay:3.5s"/>
  <circle cx="770" cy="55" r="0.6" fill="#c9d1d9" class="s" style="animation-delay:1.4s"/>
  <!-- Stars — edges -->
  <circle cx="15" cy="50" r="0.6" fill="#c9d1d9" class="s" style="animation-delay:2.8s"/>
  <circle cx="10" cy="140" r="0.7" fill="#c9d1d9" class="s" style="animation-delay:0.2s"/>
  <circle cx="18" cy="230" r="0.5" fill="#c9d1d9" class="s" style="animation-delay:3.0s"/>
  <circle cx="12" cy="300" r="0.6" fill="#c9d1d9" class="s" style="animation-delay:1.6s"/>
  <circle cx="730" cy="250" r="0.5" fill="#c9d1d9" class="s" style="animation-delay:2.4s"/>
  <circle cx="760" cy="280" r="0.7" fill="#c9d1d9" class="s" style="animation-delay:0.7s"/>
  <circle cx="785" cy="260" r="0.6" fill="#c9d1d9" class="s" style="animation-delay:3.2s"/>
  <circle cx="790" cy="305" r="0.5" fill="#c9d1d9" class="s" style="animation-delay:1.8s"/>

  <!-- Main branch line -->
  <rect x="30" y="200" width="740" height="3" fill="#484f58" rx="1"/>
  <line x1="221" y1="201" x2="310" y2="126" stroke="#484f58" stroke-width="3" stroke-linecap="round"/>
  <rect x="310" y="124" width="180" height="3" fill="#484f58"/>
  <line x1="490" y1="126" x2="571" y2="201" stroke="#484f58" stroke-width="3" stroke-linecap="round"/>
  <line x1="641" y1="201" x2="670" y2="255" stroke="#484f58" stroke-width="2" stroke-linecap="round"/>
  <line x1="670" y1="255" x2="711" y2="201" stroke="#484f58" stroke-width="2" stroke-linecap="round"/>

  <rect x="30" y="199" width="14" height="5" fill="#2DA44E" opacity=".55" rx="2" class="branch-glow"/>

  <rect x="76" y="196" width="10" height="10" fill="#2DA44E" rx="2" class="np" style="animation-delay:0s"/>
  <rect x="146" y="196" width="10" height="10" fill="#2DA44E" rx="2" class="np" style="animation-delay:.3s"/>
  <rect x="216" y="196" width="10" height="10" fill="#2F81F7" rx="2" class="np" style="animation-delay:.6s"/>
  <rect x="566" y="196" width="10" height="10" fill="#2F81F7" rx="2" class="np" style="animation-delay:1.5s"/>
  <rect x="636" y="196" width="10" height="10" fill="#2DA44E" rx="2" class="np" style="animation-delay:1.8s"/>
  <rect x="706" y="196" width="10" height="10" fill="#2F81F7" rx="2" class="np" style="animation-delay:2.1s"/>
  <rect x="756" y="196" width="10" height="10" fill="#2DA44E" rx="2" class="np" style="animation-delay:2.4s"/>
  <rect x="346" y="120" width="10" height="10" fill="#8957E5" rx="2" class="np" style="animation-delay:.9s"/>
  <rect x="446" y="120" width="10" height="10" fill="#8957E5" rx="2" class="np" style="animation-delay:1.2s"/>
  <rect x="666" y="251" width="8" height="8" fill="#DA3633" rx="2"/>

  <rect x="56" y="215" width="40" height="16" fill="rgba(46,160,67,.12)" rx="4"/>
  <text x="76" y="227" font-family="ui-monospace,monospace" font-size="9" fill="#3fb950" text-anchor="middle">main</text>
  <rect x="325" y="97" width="54" height="16" fill="rgba(137,87,229,.12)" rx="4"/>
  <text x="352" y="109" font-family="ui-monospace,monospace" font-size="9" fill="#8957E5" text-anchor="middle">feature</text>
  <rect x="646" y="265" width="50" height="16" fill="rgba(218,54,51,.12)" rx="4"/>
  <text x="671" y="277" font-family="ui-monospace,monospace" font-size="9" fill="#DA3633" text-anchor="middle">hotfix</text>
  <rect x="739" y="177" width="38" height="16" fill="rgba(31,111,235,.12)" rx="4"/>
  <text x="758" y="189" font-family="ui-monospace,monospace" font-size="9" fill="#58a6ff" text-anchor="middle">HEAD</text>

  <g transform="translate(530, 85) scale(0.35)">
    <g class="char">
      <rect x="98" y="32" width="32" height="32" fill="#C27456" rx="1"/><rect x="131" y="32" width="32" height="32" fill="#C27456" rx="1"/><rect x="164" y="32" width="32" height="32" fill="#C27456" rx="1"/><rect x="197" y="32" width="32" height="32" fill="#C27456" rx="1"/><rect x="230" y="32" width="32" height="32" fill="#C27456" rx="1"/><rect x="263" y="32" width="32" height="32" fill="#C27456" rx="1"/><rect x="296" y="32" width="32" height="32" fill="#C27456" rx="1"/><rect x="329" y="32" width="32" height="32" fill="#C27456" rx="1"/><rect x="362" y="32" width="32" height="32" fill="#C27456" rx="1"/><rect x="395" y="32" width="32" height="32" fill="#C27456" rx="1"/><rect x="428" y="32" width="32" height="32" fill="#C27456" rx="1"/><rect x="461" y="32" width="32" height="32" fill="#C27456" rx="1"/>
      <rect x="98" y="65" width="32" height="32" fill="#C27456" rx="1"/><rect x="131" y="65" width="32" height="32" fill="#C27456" rx="1"/><rect x="197" y="65" width="32" height="32" fill="#C27456" rx="1"/><rect x="230" y="65" width="32" height="32" fill="#C27456" rx="1"/><rect x="263" y="65" width="32" height="32" fill="#C27456" rx="1"/><rect x="296" y="65" width="32" height="32" fill="#C27456" rx="1"/><rect x="329" y="65" width="32" height="32" fill="#C27456" rx="1"/><rect x="362" y="65" width="32" height="32" fill="#C27456" rx="1"/><rect x="428" y="65" width="32" height="32" fill="#C27456" rx="1"/><rect x="461" y="65" width="32" height="32" fill="#C27456" rx="1"/>
      <rect x="98" y="98" width="32" height="32" fill="#C27456" rx="1"/><rect x="131" y="98" width="32" height="32" fill="#C27456" rx="1"/><rect x="197" y="98" width="32" height="32" fill="#C27456" rx="1"/><rect x="230" y="98" width="32" height="32" fill="#C27456" rx="1"/><rect x="263" y="98" width="32" height="32" fill="#C27456" rx="1"/><rect x="296" y="98" width="32" height="32" fill="#C27456" rx="1"/><rect x="329" y="98" width="32" height="32" fill="#C27456" rx="1"/><rect x="362" y="98" width="32" height="32" fill="#C27456" rx="1"/><rect x="428" y="98" width="32" height="32" fill="#C27456" rx="1"/><rect x="461" y="98" width="32" height="32" fill="#C27456" rx="1"/>
      <rect x="98" y="131" width="32" height="32" fill="#C27456" rx="1"/><rect x="131" y="131" width="32" height="32" fill="#C27456" rx="1"/><rect x="164" y="131" width="32" height="32" fill="#C27456" rx="1"/><rect x="197" y="131" width="32" height="32" fill="#C27456" rx="1"/><rect x="230" y="131" width="32" height="32" fill="#C27456" rx="1"/><rect x="263" y="131" width="32" height="32" fill="#C27456" rx="1"/><rect x="296" y="131" width="32" height="32" fill="#C27456" rx="1"/><rect x="329" y="131" width="32" height="32" fill="#C27456" rx="1"/><rect x="362" y="131" width="32" height="32" fill="#C27456" rx="1"/><rect x="395" y="131" width="32" height="32" fill="#C27456" rx="1"/><rect x="428" y="131" width="32" height="32" fill="#C27456" rx="1"/><rect x="461" y="131" width="32" height="32" fill="#C27456" rx="1"/>
      <rect x="98" y="164" width="32" height="32" fill="#C27456" rx="1"/><rect x="131" y="164" width="32" height="32" fill="#C27456" rx="1"/><rect x="164" y="164" width="32" height="32" fill="#C27456" rx="1"/><rect x="197" y="164" width="32" height="32" fill="#C27456" rx="1"/><rect x="230" y="164" width="32" height="32" fill="#C27456" rx="1"/><rect x="263" y="164" width="32" height="32" fill="#C27456" rx="1"/><rect x="296" y="164" width="32" height="32" fill="#C27456" rx="1"/><rect x="329" y="164" width="32" height="32" fill="#C27456" rx="1"/><rect x="362" y="164" width="32" height="32" fill="#C27456" rx="1"/><rect x="395" y="164" width="32" height="32" fill="#C27456" rx="1"/><rect x="428" y="164" width="32" height="32" fill="#C27456" rx="1"/><rect x="461" y="164" width="32" height="32" fill="#C27456" rx="1"/>
      <rect x="98" y="197" width="32" height="32" fill="#C27456" rx="1"/><rect x="131" y="197" width="32" height="32" fill="#C27456" rx="1"/><rect x="164" y="197" width="32" height="32" fill="#C27456" rx="1"/><rect x="197" y="197" width="32" height="32" fill="#C27456" rx="1"/><rect x="230" y="197" width="32" height="32" fill="#C27456" rx="1"/><rect x="263" y="197" width="32" height="32" fill="#C27456" rx="1"/><rect x="296" y="197" width="32" height="32" fill="#C27456" rx="1"/><rect x="329" y="197" width="32" height="32" fill="#C27456" rx="1"/><rect x="362" y="197" width="32" height="32" fill="#C27456" rx="1"/><rect x="395" y="197" width="32" height="32" fill="#C27456" rx="1"/><rect x="428" y="197" width="32" height="32" fill="#C27456" rx="1"/><rect x="461" y="197" width="32" height="32" fill="#C27456" rx="1"/>
      <rect x="98" y="230" width="32" height="32" fill="#C27456" rx="1"/><rect x="131" y="230" width="32" height="32" fill="#C27456" rx="1"/><rect x="164" y="230" width="32" height="32" fill="#C27456" rx="1"/><rect x="197" y="230" width="32" height="32" fill="#C27456" rx="1"/><rect x="230" y="230" width="32" height="32" fill="#C27456" rx="1"/><rect x="263" y="230" width="32" height="32" fill="#C27456" rx="1"/><rect x="296" y="230" width="32" height="32" fill="#C27456" rx="1"/><rect x="329" y="230" width="32" height="32" fill="#C27456" rx="1"/><rect x="362" y="230" width="32" height="32" fill="#C27456" rx="1"/><rect x="395" y="230" width="32" height="32" fill="#C27456" rx="1"/><rect x="428" y="230" width="32" height="32" fill="#C27456" rx="1"/><rect x="461" y="230" width="32" height="32" fill="#C27456" rx="1"/>
      <g class="eyes">
        <rect x="164" y="65" width="32" height="32" fill="#1A1A1A" rx="1"/><rect x="395" y="65" width="32" height="32" fill="#1A1A1A" rx="1"/><rect x="164" y="98" width="32" height="32" fill="#1A1A1A" rx="1"/><rect x="395" y="98" width="32" height="32" fill="#1A1A1A" rx="1"/>
      </g>
      <g class="left-arm">
        <rect x="32" y="164" width="32" height="32" fill="#C27456" rx="1"/><rect x="65" y="164" width="32" height="32" fill="#C27456" rx="1"/>
      </g>
      <g class="right-arm">
        <rect x="494" y="164" width="32" height="32" fill="#C27456" rx="1"/><rect x="527" y="164" width="32" height="32" fill="#C27456" rx="1"/>
      </g>
      <g class="left-leg">
        <rect x="131" y="263" width="32" height="32" fill="#2DA44E" rx="1"/><rect x="197" y="263" width="32" height="32" fill="#C27456" rx="1"/><rect x="131" y="296" width="32" height="32" fill="#C27456" rx="1"/><rect x="197" y="296" width="32" height="32" fill="#8957E5" rx="1"/>
      </g>
      <g class="right-leg">
        <rect x="362" y="263" width="32" height="32" fill="#2F81F7" rx="1"/><rect x="428" y="263" width="32" height="32" fill="#C27456" rx="1"/><rect x="362" y="296" width="32" height="32" fill="#C27456" rx="1"/><rect x="428" y="296" width="32" height="32" fill="#DA3633" rx="1"/>
      </g>
    </g>
  </g>
</svg>
